<svg width="613" height="322" viewBox="0 0 613 322" fill="none" xmlns="http://www.w3.org/2000/svg">
<path d="M322.082 289.904V321.809H290.339V289.904H322.082ZM290.339 289.904V258.322H322.082V289.904H290.339ZM290.339 258.322V225.935H322.082V258.322H290.339ZM290.339 129.094V96.7061H322.082V129.094H290.339ZM290.339 96.7061V64.3184H322.082V96.7061H290.339ZM290.339 64.3184V32.7363H322.082V64.3184H290.339ZM258.112 32.7363V0.348633H290.339V32.7363H258.112ZM290.339 289.904V321.809H258.112V289.904H290.339ZM258.112 289.904V258.322H290.339V289.904H258.112ZM258.112 258.322V225.935H290.339V258.322H258.112ZM258.112 225.935V193.708H290.339V225.935H258.112ZM258.112 161.32V129.094H290.339V161.32H258.112ZM258.112 129.094V96.7061H290.339V129.094H258.112ZM258.112 96.7061V64.3184H290.339V96.7061H258.112ZM258.112 64.3184V32.7363H290.339V64.3184H258.112ZM225.725 32.7363V0.348633H258.112V32.7363H225.725ZM258.112 289.904V321.809H225.725V289.904H258.112ZM225.725 289.904V258.322H258.112V289.904H225.725ZM225.725 225.935V193.708H258.112V225.935H225.725ZM225.725 193.708V161.32H258.112V193.708H225.725ZM225.725 161.32V129.094H258.112V161.32H225.725ZM225.725 129.094V96.7061H258.112V129.094H225.725ZM225.725 96.7061V64.3184H258.112V96.7061H225.725ZM193.498 32.7363V0.348633H225.725V32.7363H193.498ZM225.725 289.904V321.809H193.498V289.904H225.725ZM193.498 289.904V258.322H225.725V289.904H193.498ZM193.498 193.708V161.32H225.725V193.708H193.498ZM193.498 161.32V129.094H225.725V161.32H193.498ZM193.498 129.094V96.7061H225.725V129.094H193.498ZM161.11 32.7363V0.348633H193.498V32.7363H161.11ZM161.11 289.904V258.322H193.498V289.904H161.11ZM161.11 258.322V225.935H193.498V258.322H161.11ZM161.11 161.32V129.094H193.498V161.32H161.11ZM161.11 64.3184V32.7363H193.498V64.3184H161.11ZM161.11 289.904V321.809H128.723V289.904H161.11ZM128.723 289.904V258.322H161.11V289.904H128.723ZM128.723 258.322V225.935H161.11V258.322H128.723ZM128.723 225.935V193.708H161.11V225.935H128.723ZM128.723 96.7061V64.3184H161.11V96.7061H128.723ZM128.723 64.3184V32.7363H161.11V64.3184H128.723ZM97.1406 32.7363V0.348633H128.723V32.7363H97.1406ZM128.723 289.904V321.809H97.1406V289.904H128.723ZM97.1406 289.904V258.322H128.723V289.904H97.1406ZM97.1406 258.322V225.935H128.723V258.322H97.1406ZM97.1406 225.935V193.708H128.723V225.935H97.1406ZM97.1406 193.708V161.32H128.723V193.708H97.1406ZM97.1406 129.094V96.7061H128.723V129.094H97.1406ZM97.1406 96.7061V64.3184H128.723V96.7061H97.1406ZM97.1406 64.3184V32.7363H128.723V64.3184H97.1406ZM64.7529 32.7363V0.348633H97.1406V32.7363H64.7529ZM97.1406 289.904V321.809H64.7529V289.904H97.1406ZM64.7529 289.904V258.322H97.1406V289.904H64.7529ZM32.5264 32.7363V0.348633H64.7529V32.7363H32.5264ZM64.7529 289.904V321.809H32.5264V289.904H64.7529ZM32.5264 289.904V258.322H64.7529V289.904H32.5264ZM0.138672 32.7363V0.348633H32.5264V32.7363H0.138672ZM0.138672 289.904V258.322H32.5264V289.904H0.138672ZM0.138672 258.322V225.935H32.5264V258.322H0.138672ZM0.138672 225.935V193.708H32.5264V225.935H0.138672ZM0.138672 193.708V161.32H32.5264V193.708H0.138672ZM0.138672 161.32V129.094H32.5264V161.32H0.138672ZM0.138672 129.094V96.7061H32.5264V129.094H0.138672ZM0.138672 96.7061V64.3184H32.5264V96.7061H0.138672ZM0.138672 64.3184V32.7363H32.5264V64.3184H0.138672ZM580.7 289.904V258.322H612.443V289.904H580.7ZM580.7 258.322V225.935H612.443V258.322H580.7ZM580.7 225.935V193.708H612.443V225.935H580.7ZM580.7 193.708V161.32H612.443V193.708H580.7ZM580.7 161.32V129.094H612.443V161.32H580.7ZM580.7 129.094V96.7061H612.443V129.094H580.7ZM580.7 96.7061V64.3184H612.443V96.7061H580.7ZM580.7 289.904V321.809H548.474V289.904H580.7ZM548.474 289.904V258.322H580.7V289.904H548.474ZM548.474 258.322V225.935H580.7V258.322H548.474ZM548.474 225.935V193.708H580.7V225.935H548.474ZM548.474 193.708V161.32H580.7V193.708H548.474ZM548.474 161.32V129.094H580.7V161.32H548.474ZM548.474 129.094V96.7061H580.7V129.094H548.474ZM548.474 96.7061V64.3184H580.7V96.7061H548.474ZM548.474 64.3184V32.7363H580.7V64.3184H548.474ZM516.086 32.7363V0.348633H548.474V32.7363H516.086ZM548.474 289.904V321.809H516.086V289.904H548.474ZM516.086 289.904V258.322H548.474V289.904H516.086ZM516.086 258.322V225.935H548.474V258.322H516.086ZM516.086 161.32V129.094H548.474V161.32H516.086ZM516.086 129.094V96.7061H548.474V129.094H516.086ZM516.086 64.3184V32.7363H548.474V64.3184H516.086ZM483.859 32.7363V0.348633H516.086V32.7363H483.859ZM516.086 289.904V321.809H483.859V289.904H516.086ZM483.859 289.904V258.322H516.086V289.904H483.859ZM483.859 129.094V96.7061H516.086V129.094H483.859ZM451.472 32.7363V0.348633H483.859V32.7363H451.472ZM483.859 289.904V321.809H451.472V289.904H483.859ZM451.472 289.904V258.322H483.859V289.904H451.472ZM451.472 225.935V193.708H483.859V225.935H451.472ZM451.472 193.708V161.32H483.859V193.708H451.472ZM451.472 129.094V96.7061H483.859V129.094H451.472ZM451.472 96.7061V64.3184H483.859V96.7061H451.472ZM419.084 32.7363V0.348633H451.472V32.7363H419.084ZM451.472 289.904V321.809H419.084V289.904H451.472ZM419.084 289.904V258.322H451.472V289.904H419.084ZM419.084 225.935V193.708H451.472V225.935H419.084ZM419.084 193.708V161.32H451.472V193.708H419.084ZM419.084 129.094V96.7061H451.472V129.094H419.084ZM419.084 96.7061V64.3184H451.472V96.7061H419.084ZM387.502 32.7363V0.348633H419.084V32.7363H387.502ZM419.084 289.904V321.809H387.502V289.904H419.084ZM387.502 289.904V258.322H419.084V289.904H387.502ZM387.502 225.935V193.708H419.084V225.935H387.502ZM387.502 193.708V161.32H419.084V193.708H387.502ZM387.502 129.094V96.7061H419.084V129.094H387.502ZM387.502 96.7061V64.3184H419.084V96.7061H387.502ZM355.114 32.7363V0.348633H387.502V32.7363H355.114ZM387.502 289.904V321.809H355.114V289.904H387.502ZM355.114 289.904V258.322H387.502V289.904H355.114ZM355.114 193.708V161.32H387.502V193.708H355.114ZM322.888 32.7363V0.348633H355.114V32.7363H322.888ZM322.888 289.904V258.322H355.114V289.904H322.888ZM322.888 258.322V225.935H355.114V258.322H322.888ZM322.888 193.708V161.32H355.114V193.708H322.888ZM322.888 161.32V129.094H355.114V161.32H322.888ZM322.888 64.3184V32.7363H355.114V64.3184H322.888ZM290.5 258.322V225.935H322.888V258.322H290.5ZM290.5 225.935V193.708H322.888V225.935H290.5ZM290.5 193.708V161.32H322.888V193.708H290.5ZM290.5 161.32V129.094H322.888V161.32H290.5ZM290.5 129.094V96.7061H322.888V129.094H290.5ZM290.5 96.7061V64.3184H322.888V96.7061H290.5ZM290.5 64.3184V32.7363H322.888V64.3184H290.5Z" fill="black"/>
</svg>
